<?xml version="1.0" encoding="UTF-8"?><svg id="Design" xmlns="http://www.w3.org/2000/svg" viewBox="0 0 190.48 206.64"><defs><style>.cls-1{fill:#fefbea;}</style></defs><path class="cls-1" d="M98.12,19.8c.51.2.78.68.62,1.23l-2.74,2.09.14.96,4.56-2.88c-1.11-.91-1.89-1.78-1.68-3.36l-4.8,2.88c.56,2.04,2.57-1.58,3.91-.92Z"/><path class="cls-1" d="M102.5,19.04l.84-1.32c.03-.18-.28-.07-.38-.2-1.69-2.25-2.11.51-.46,1.52Z"/><path class="cls-1" d="M62.42,168.57c-4.03-9.25-11.91-15.83-21.62-18.07-9.55-2.2-19.37.25-26.93,6.71-3.17,2.71-8.48,9.52-9.91,13.31-1.62,4.28-.54,11.51.53,15.06,2.65,8.87,8.55,15.05,17.52,18.38,5.46,2.03,11.27,2.68,16.5,2.68,3.33,0,6.43-.27,9.04-.61,1.7-.22,3.5-.56,5.36-.99l1.48-.35.06-1.52c.1-2.64-.05-5.19-.19-7.67-.23-3.92-.45-7.62.3-11.44,1-5.12,3.56-9.69,7.4-13.22l1.05-.96-.57-1.31ZM52.58,183.67c-1.3,6.61.12,12.79-.14,19.42-1.69.4-3.43.73-5.16.96-16.43,2.17-35.5-1.05-40.88-19.04-1.09-3.66-1.93-10.2-.57-13.78,1.33-3.5,6.45-10.03,9.34-12.5,15.12-12.92,37.64-7.2,45.43,10.64-4.17,3.83-6.91,8.72-8.01,14.31Z"/><path class="cls-1" d="M73.59,177.42c-.59-.91-2.98-3.02-3-3.04-.06-.05-5.96-5.16-9.25-4.96-1,.06-1.95.63-2.69,1.61-.78,1.03-1.11,2.26-.89,3.29.92,4.3,10.25,6.61,10.35,6.63,1.02.23,2.11.44,3.33.44.29,0,.59-.01.89-.04l1.52-.13.28-1.5c.22-1.17-.28-1.93-.52-2.3ZM72.14,179.36c-1.26.11-2.39-.08-3.6-.36-2.18-.5-8.33-2.72-8.83-5.1-.2-.92.84-2.43,1.76-2.49,1.88-.12,6.34,3.16,7.8,4.46.56.49,2.32,2.12,2.65,2.63.19.29.3.48.23.85Z"/><path class="cls-1" d="M69.99,179.93l-.56-.19c-.63-.21-1.29-.41-1.95-.62-3.16-.97-6.43-1.97-7.85-4.56l-1.81-3.3-5.18,10.05,1.81.9c3.95,1.97,8.09,3.76,11.81,3.76.41,0,.81-.02,1.2-.07.02,0,2.23-.27,2.98-1.46.34-.54.38-1.11.41-1.57,0-.08,0-.16.02-.24l.49-.98-1.37-1.72ZM68.73,183.39c-.11.17-1.2.5-1.51.54-3.74.42-8.59-1.85-11.89-3.5l2.53-4.9c2.15,3.92,7.02,4.8,10.92,6.11l.2.26c-.19.38-.1,1.25-.26,1.5Z"/><path class="cls-1" d="M51.91,186.73v8.49l1.39.45c1.73.56,3.23.84,4.52.84s2.32-.27,3.2-.8c.87-.53,1.97-1.58,2.32-3.62l.29-1.73-11.72-3.63ZM53.91,193.76v-4.32l7.46,2.31c-.63,3.74-4.8,2.87-7.46,2.01Z"/><path class="cls-1" d="M65.09,184.33c-3.02-.22-6.01-1.56-8.9-2.86l-3.1-1.39-1.77,10.59,3.43-1.58s.07-.03.11-.05c.63.07,1.6.45,2.54.81,1.48.58,3.1,1.2,4.67,1.2.76,0,1.52-.15,2.24-.53,1.28-.67,2.16-1.93,2.59-3.75l.55-2.29-2.35-.17ZM54.79,189.04h0l.13-1.59h0l-.13,1.59ZM54.95,187.05c-.42-.03-.68.06-1.04.23l.72-4.32c3.29,1.47,6.67,3.1,10.31,3.36-1.34,5.55-6.8.98-9.99.73Z"/><path class="cls-1" d="M80.32,191.2c-.81-.57-2.18-1.53-2.36-2l-.57-1.49-.41.06-.08-.2c-.15-.37-.31-.73-.46-1.09-.53-1.24-1-2.31-1.13-3.48l-.2-1.74-4.69-.08-.02,2.01c0,.57-.12.94-.77,1.51-.23.19-1.12.62-1.49.81-.92.45-1.34.66-1.68,1.24-.32.55-.39,1.13-.46,1.65-.04.29-.09.69-.17.84-.18.29-1.03.83-1.31,1.01-.48.31-.83.53-1.11.94-.36.53-.43,1.12-.5,1.74-.02.18-.06.49-.08.58-.03.04-.14.16-.22.25-.23.24-.55.58-.83,1.06l-1.16,2.05,12.77,4.66c.82.29,1.89.46,3.04.46,1.74,0,3.67-.39,5.23-1.32,1.52-.9,2.45-2.19,2.69-3.72.42-2.65-2.04-4.37-4.02-5.76ZM82.37,196.64c-.49,3.13-5.83,3.89-8.31,3.01l-10.54-3.85c.36-.64.96-.9,1.2-1.67.18-.55.18-1.57.34-1.82.15-.23,1.9-1.05,2.49-2.07.51-.87.36-2.02.63-2.49.09-.15,2.14-1,2.77-1.55.94-.83,1.44-1.69,1.45-2.99l.92.02c.21,1.86,1.04,3.41,1.73,5.1-1.64.27-4.49,6.17-2.3,6.33,1.3.1,1.54-4.48,3.35-4.74.91,2.36,6.67,4.2,6.27,6.72Z"/><path class="cls-1" d="M187.22,192.2c-3.75-3.79-9.34-5.08-14.71-5.92l1.75-.63-6.65-1.51c-4.33-.98-8.77-1.6-13.08-2.21-1.02-.14-2.04-.29-3.06-.43-.75-.11-1.55-.13-2.33-.16-.66-.02-1.28-.04-1.78-.11,1.09-1.18,1.93-2.65,2.12-4.68.11-1.15,0-2.06-.1-2.79-.14-1.11-.21-1.62.44-2.7.25-.42.9-1.12,1.46-1.73,1.45-1.57,2.94-3.19,2.72-4.9.44-.07.89-.27,1.29-.66,1.21-1.17.66-2.92.48-3.49-.63-2-2.3-2.48-3.55-2.62l.23-1.36-2.05-.27c-4.19-.55-7.56,2.03-9.37,3.42-5.17,3.97-8.93,10.2-10.3,16.96-.67-.1-1.33-.19-2-.29-4.67-.7-9.5-1.42-14.42-.86-12.57,1.42-23.48,9.26-30.7,22.09l-1.81,3.21,3.68-.24c3.61-.23,7.16.19,10.92.63,1.79.21,3.64.43,5.48.57,4.24.32,8.73.64,13.05.74,7.44.17,14.97-.35,22.25-.86,11.68-.81,23.76-1.64,35.45.41,1.01.18,2.33.53,3.73.91,2.75.74,5.57,1.49,7.88,1.49.58,0,1.13-.05,1.64-.16,3.09-.66,4.09-2.53,4.4-3.59.88-2.93-1.1-6.29-3.05-8.26ZM185.45,202.09c-3.02.64-9.04-1.65-12.49-2.26-19.25-3.38-38.67.85-58,.42-4.27-.1-8.68-.41-12.94-.73-5.56-.42-11.07-1.56-16.68-1.2,6.21-11.02,16.22-19.63,29.18-21.09,5.99-.67,11.93.66,17.84,1.41.89-6.8,4.41-13.43,9.86-17.62,2.31-1.77,4.83-3.43,7.89-3.02l-.24,1.44c1.37.37,3.44-.26,3.97,1.43.84,2.68-1.3,1.21-2.47,1.03-1.51-.23-2.95.03-2.7,1.86,7.09-.43.85,3.9-.58,6.26-1.56,2.6-.38,3.74-.62,6.34-.28,2.91-2.37,4.37-4.56,5.88,1.35-.02,2.71.74,3.98.94,1.27.2,2.96.1,4.27.29,5.34.77,10.73,1.42,15.98,2.61l-2.64.95c6.7,1.35,16.19,1.43,21.27,6.57,2.55,2.58,4.63,7.43-.34,8.49Z"/><path class="cls-1" d="M56.78,97.76c-.42-.06-.24.55-.21.81,1.14,10.28,12.05,24.84,17.05,34.07,1.23,2.27,2.38,4.71,2.12,7.36-1.34-.21-3.43-3.3-4.4-3.29-.18,0-.58.12-.65.33-.57,2.22,4.52,4.45,4.59,4.79.22,1.01-1.43,2.78-2.36,3.17-.56.14-1.59-1.08-1.97-1.53-.83-.98-1.73-3.29-2.71-3.55-.26-.07-.31-.25-.54.07-1.03,1.43,1.84,4.44,2.76,5.52-7.41-.03-11.62-7.67-17.2-11.47-3.2-2.18-7.08-2.54-9.56-5.32-5.66-6.35-8.74-17.89-12-25.67l-2.03-4.09v3.96c0,5.25,8.41,23.18,12,27.35,2.83,3.28,5.93,3.27,9.33,5.31,5.84,3.5,9.69,10.72,16.77,12.27,5.95,1.3,10.56-2.33,10.63-8.44.06-5.71-7.19-15.14-10.14-20.36-3.97-7.03-7.05-14.53-11.48-21.28Z"/><path class="cls-1" d="M135.71,159.17l-1.9.63s0,0,0,0c.36.96,1.36,3.65,1.15,4.5-.12.5-1.74,2.62-2.15,3.38-1.46,2.71-2.82,5.74-3.32,8.8-16.95-6.31-36.78,3.05-44.75,18.72-.59-2.6-3.25-3.48-5.04-5.03-2.18-1.89-4.77-6.19-5.11-9.07-.12-1.02.45-1.83.09-2.95-.42-1.29-4.77-5.13-6.05-5.94-1.65-1.05-4.95-1.93-6.25-3.23-.47-.48-2.33-5-3.33-6.39-14.12-19.6-42.45-18.83-53.33,3.25l-1.95,5.36c-1.68-10.41.24-20.99,1.68-31.32l-2.64,5.16c.09-1.15-.13-2.47,0-3.6.09-.79.59-2.28.85-3.11.28-.89,1.21-2.55,1.31-3.25.06-.37,0-.42-.36-.36l-1.32.72c-.24-2.56,2.3-5.56,3.95-7.44,1.96-2.25,4.54-3.68,6.35-5.64,3.09-3.35,5.13-8.37,6.55-12.65,1.59-4.76,2.86-9.72,4.01-14.58l-1.43.47c-1.19-.83,1.71-6.71,2.39-7.79-.85,0-1.35.12-1.44-.99-.07-.84,1.49-3.12,2.07-3.91.64-.88,2.27-2.3,2.6-2.92.42-.79.54-2.25.91-3.17,1.38-3.4,4.27-7.87,4.88-11.44.03-.17.04-2.04,0-2.17-.39-1.68-2.97-3.66-3.26-5.52l-2.64,3.36c-.38.07-.26-.33-.24-.59.18-2.18,1.9-4.16,2.09-5.32.09-.56-.38-1.92-.41-2.61-.14-3.3.19-7.72,2.39-10.32-3.37-2.76-1.34-6.64,1.67-8.67-.14-.44-.42-.64-.48-1.16-.37-3.36.28-7.3.26-10.69l2.64,2.88v-3.72c0-.55,1.03-3.51,1.32-4.2,1.11-2.59,3.03-4.57,5.04-6.48v5.28s3.65-3.18,3.65-3.18c.21-2.28,2.83-3.93,4.64-5.08,3.92-2.46,8.46-3.42,12.7-5.18h.48l-4.56,3.12c2.4-.53,4.76-1.41,7.18-1.81,1.06-.18,2.9-.69,3.63.24.47.6-.43,1.3-.96,1.46-.55.17-1.47-.11-1.69.34,6.9.29,13.7,2.82,18.84,7.44-.03-.55-.15-2.81.85-2.55,1.28.34,1.28,2.09,1.72,3.09,1.01,2.27,2.5,3.85,3.79,5.93.4.27,5.69-3.97,6.65-4.26.63-.19,2.81-.48,3.54-.54,1.32-.1,3.83-.49,3.43,1.5-.1.5-2.02,4.28-2.39,4.82-.89,1.29-2.41,1.79-3.32,3.04,2.15.03,3.73,1.65,3.62,3.83,5.2.83,12.86,3.54,14.5,9.14.07.25.28.81,0,.96-4.15-4.51-9.5-7.63-15.72-8.16,1.11,1.3.28,2.95,1.2,4.44,4,1,8.02,2.6,11.5,4.82,2.35,1.49,4.85,3.51,6.02,6.1-3.12-1.4-5.75-3.68-8.72-5.32-2.84-1.57-5.9-2.74-9.04-3.56-.09.44-.27.85-.26,1.32.03,2.73.59,5.04.26,7.92-.77,6.61-3.83,11.67-9.53,15.11.6,2.86,1.88,5.26,3.76,7.46,1.76,2.05,6.62,5.61,7.46,7.66.21.51.14,1.11.36,1.56.36.77,3.18,3.67,4,4.88,1.48,2.18,3.39,4.9,3.07,7.61-.2.23-1.41-1.07-1.19-.13.22.95.77,2,1.02,3.06,1.96,8.26,4.45,20.96.61,28.85-.19.39-.55,1.16-.93,1.35v-4.2c0-.2.69-1.38,0-1.56-1.55,7.85-4.56,17.43-9.96,23.52-.33.38-2.87,2.98-3.24,2.63.69-1.42,2.61-5.51,1.98-6.9-.12-.25-.31-.59-.64-.53-.88.19-1.51,3.44-1.88,4.37-.55,1.39-1.19,2.67-1.9,3.98-2.16.37-4.11-.94-5.47-2.48.94-1.07,1.75-2.31,2.43-3.56.41-.76,2.25-4.1,1.39-4.71-1.74-.1-1.86,1.97-2.5,3.12-.67,1.22-1.5,2.37-2.17,3.59-2.83-4.86-1.45-11.12.48-16.08,2.87-7.35,9.36-15.36,8.21-23.58l-.66-2.1c-.79,3.48-1.72,6.99-3.01,10.31-2.9,7.49-8.26,14.3-9,22.56-1.16-.32-2.42-.35-3.61-.13-.96.17-4.1,1.25-4.03,2.42,1.35,1.29,3.34-.68,5.15-.83.52-.04,1.63,0,2.01.34.23.2.8,5.03,1.13,6.07.82,2.58,2.8,5.5,5.27,6.73,8.77,4.37,15.18-7.46,18.19-13.87,2.45,2.09,4.77,4.93,7.2,6.95,3,2.49,6.96,4.58,9.93,7.11.78.66,1.64,1.39,1.7,2.5-.57-.02-1.17.09-1.74-.06-.55-.14-1.02-1.05-1.62-.78,3.06,3.59,5.8,7.78,7.44,12.24l1.88-.69c-1.05-2.85-2.61-5.79-4.58-8.65l.74.03-.12-2.19c-.11-1.96-1.48-3.13-2.4-3.91-1.61-1.37-3.48-2.6-5.28-3.79-1.69-1.12-3.29-2.18-4.67-3.32-1.17-.97-2.32-2.16-3.54-3.41-1.17-1.2-2.38-2.45-3.64-3.52l-.94-.8c.59-1.54,1.1-3.1,1.56-4.63l.77-.38c.9-.45,1.39-1.34,1.84-2.26,3.99-8.2,1.85-20.44-.47-30.19-.09-.38-.21-.74-.33-1.09.02-.02.03-.04.05-.05l.41-.46.07-.61c.41-3.38-1.72-6.51-3.27-8.79l-.13-.19c-.45-.67-1.28-1.61-2.15-2.61-.57-.65-1.41-1.61-1.68-1.99-.01-.07-.02-.14-.03-.21-.04-.33-.11-.79-.31-1.27-.65-1.59-2.42-3.24-5.04-5.59-1.12-1-2.17-1.94-2.75-2.62-1.43-1.67-2.4-3.37-2.99-5.26,5.33-3.67,8.42-8.97,9.22-15.78.23-2,.08-3.72-.07-5.39-.04-.5-.09-.99-.12-1.48,2.23.73,4.34,1.63,6.28,2.7,1.16.64,2.28,1.39,3.45,2.19,1.69,1.14,3.44,2.32,5.41,3.21l4.8,2.16-2.15-4.8c-.75-1.66-1.97-3.22-3.71-4.72.55-.36,1.4-1.26.8-3.18-1.67-5.7-8.38-8.98-14.6-10.27-.23-.89-.67-1.7-1.3-2.37-.12-.12-.24-.24-.37-.36.42-.36.83-.78,1.2-1.31.34-.49,2.52-4.6,2.71-5.56.3-1.48-.3-2.42-.68-2.84-1.21-1.36-3.21-1.18-4.53-1.07l-.33.03c-.64.05-3.06.34-3.97.62-.69.21-1.58.81-3.75,2.36-.5.36-1.13.81-1.68,1.18-.16-.22-.31-.44-.47-.66-.81-1.13-1.58-2.2-2.14-3.46-.06-.13-.13-.42-.2-.67-.28-1.05-.79-3-2.84-3.54-.79-.21-1.59-.04-2.21.47-.16.13-.3.28-.42.43-3.73-2.66-8.1-4.48-12.77-5.33,0-.56-.19-1.1-.55-1.56-.76-.97-1.82-1.27-2.85-1.31l1.48-1.01h-7.34l-.37.15c-1.4.58-2.82,1.07-4.33,1.58-2.9.99-5.9,2.02-8.67,3.76-1.77,1.11-4.3,2.7-5.23,5.14v-5.13s-3.38,3.22-3.38,3.22c-2.08,1.98-4.22,4.17-5.5,7.15-.01.03-.87,2.21-1.28,3.78l-2.88-3.15.04,5.2c0,1.26-.08,2.62-.18,4.05-.15,2.28-.31,4.64-.07,6.85.01.1.03.2.04.3-1.8,1.63-2.9,3.67-2.99,5.69-.05,1.04.15,2.45,1.18,3.83-1.71,3.07-1.96,7.12-1.83,10.2.02.47.14.99.25,1.5.05.22.13.57.16.77-.09.24-.34.7-.52,1.04-.6,1.11-1.42,2.64-1.57,4.4-.04.33-.18,1.35.64,2.13.51.49,1.22.69,1.94.57l.76-.13,1.23-1.57c.15.2.3.4.45.59.39.5.97,1.24,1.14,1.65,0,.4,0,1.28,0,1.58-.37,2.02-1.63,4.51-2.85,6.93-.71,1.41-1.39,2.75-1.9,4.01-.23.57-.37,1.19-.5,1.79-.09.4-.22,1-.29,1.14-.13.19-.64.72-.99,1.08-.54.56-1.11,1.14-1.49,1.66-2.59,3.53-2.48,4.83-2.45,5.26.05.6.22,1.25.62,1.78-1.3,2.59-2.98,6.91-.72,8.48h0c-.88,3.59-2,7.79-3.34,11.84-1.85,5.56-3.85,9.46-6.12,11.93-.74.8-1.68,1.54-2.67,2.33-1.25.99-2.55,2.02-3.72,3.35-1.66,1.9-4.76,5.45-4.44,8.94l.25,2.73c-.35,1.12-.64,2.11-.73,2.86-.08.75-.05,1.49-.02,2.2.02.54.05,1.04.01,1.46l-.8,10,1.85-3.62c-.79,6.69-1.16,13.49-.07,20.25l1.23,7.59,4.54-12.49c4.64-9.34,12.92-15.16,22.75-15.98,10.43-.87,20.57,4.03,27.11,13.11.43.6,1.24,2.3,1.83,3.54.93,1.95,1.27,2.65,1.71,3.09,1.05,1.05,2.71,1.75,4.31,2.43.86.36,1.75.74,2.28,1.08,1.12.71,4.68,3.93,5.23,4.92.03.13,0,.29-.07.69-.09.46-.2,1.09-.12,1.82.41,3.5,3.38,8.26,5.78,10.35.61.53,1.27.97,1.9,1.39,1.4.93,2.27,1.56,2.51,2.58l1.23,5.39,2.51-4.93c7.89-15.52,26.85-23.48,42.27-17.75l2.28.85.39-2.4c.38-2.36,1.37-4.95,3.11-8.17.12-.22.52-.8.84-1.26.97-1.41,1.35-2,1.5-2.59.26-1.06-.05-2.52-1.19-5.61ZM105.82,32.38c-.01-.1-.02-.2-.03-.32,1.99.47,3.92,1.25,5.76,2.33-1.83-.79-3.75-1.46-5.73-2Z"/><path class="cls-1" d="M84.66,66.72c.36-.82.3-1.64.8-2.32.94,1.81,1.37,3.4,3.82,3.1,2.04-.25,2.71-1.8,2.54-3.7-.15-1.7-1.85-3.42-1.42-5.38,4.86-.45,7.26-2.9,8.97-7.23,2.07-5.24,2.24-10.32,1.05-15.8l-8.12-1.24c.08-.44.49-.4.81-.51,2.06-.71,4.5-.79,6.63-.45-.31-3.28-1.14-5.51-4.89-5.25-1.44.1-1.93.62-2.84,1.01-.97.41-2.44.46-3.61.94-1.66.68-3.23,1.97-4.26,3.42l-2.87,8.04c.92.16,1.39.88,2.23,1.25,1.32.57,3.09.58,4.49.33,2.08-.38,4.21-2.68,6.31-2.01.67.21.21,1.59-.03,2.06-.45.87-2.87,2.07-3.83,2.41-.85.3-3.58.67-3.91.89-.25.17-.36,1.06-.83,1.57-2.44,2.57-12.36,5.12-15.22,2.97-.19-.14-.22-.55-.36-.55-.57,0-2.25.62-3.14.69-3.93.31-11.85-1.12-8.15-6.47,1.68,3.17,4.83,3.63,8.17,3.36,6.29-.5,11.58-6.48,13.03-12.31-.95-1.33-1.25-3.1-2.62-4.12-3.18-2.35-7.89-.88-11.5-.86l3.71-5.04c1.73-1.38,4.24-5.08,6.47-5.29,3.98-.36,9.17.67,12.49,2.89.05-1.33.97-2.16,2.28-1.68.1-.36-.09-.4-.24-.6-1.58-2.27-6.95-6.61-9.38-8.14-12.86-8.1-30.03-4.5-38.23,8.28-1.31,2.04-4.28,7.96-4.68,10.19-.06.33-.12,1.03.1,1.3,1.55-1.52,5.35-3.44,7.31-2.03.36.26.83.67.75,1.17-.12.75-6.14,2.25-7.32,4.24-.97,1.64-2.65,5.61-3.33,7.47-.71,1.95-1.39,4.09-1.37,6.19l5.68-4.99c3-1.96,8.46-5.95,12.18-4.59.26.09.58.1.61.46-2.44.4-5.04,1.79-7.2,3-4.3,2.39-7.84,5.4-11.16,9.01-.23.55,1.1,4.32,1.52,4.96.21.32.28.65.77.55.74-2.1,2.2-3.94,3.61-5.63,3.54-4.26,9.4-9.51,15.35-8.65-3.18,1.86-6.63,3.24-9.47,5.65-2.66,2.26-4.72,5.05-6.96,7.68-.44.51-1.72,1.5-1.94,1.92-.58,1.14,4.11,3.96,4.93,4.67-1.05,1.49-1.61,2.92-.68,4.65,1.01.08,2.3.18,3.15-.44.25-.18.31-.56.53-.72,1.18-.87,2.21-1.24,3.72-1.2.31.29-2.23,4.27.83,5.29,1.36.45,2.23.14,3.49-.38,1.97-.81,2.51-2.6,4.56-3-.34,2.96,3.58,6.32,6.3,4.98,1.36-.67.72-2.58,2.45-2.82.48.38.35,1.02.64,1.53.9,1.62,3.35,2.43,5.06,1.75,2.28-.9,2.41-4.95,3.22-5.19.48-.14,2.31,1.64,3.04,1.95,2.9,1.23,4.86-.73,5.97-3.24ZM54.68,36.99c-1.09-2.21.5-2.49,1.87-3.67-1.2-.48-2.08-2.33-1.64-3.56.13-.36.61-.37.79-.65.32-.48.06-1.18.76-1.64.47-.31,1.33-.38,1.71.04.84.93,1.04,4.55,1.28,4.71,1.24-.03,3.75-.92,4.2.73.59,2.13-2.92,2.08-4.22,2.53-1.75.61-2.83,2.35-4.75,1.5Z"/><path class="cls-1" d="M77.31,46.17c-.91.88-2.13,1.48-3.01,2.39,3.07-.15,6.46-.94,8.88-2.87-1.51-.15-2.43-1.33-3.62-2.06-.4.06-1.76,2.07-2.26,2.55Z"/><path class="cls-1" d="M83.96,25.22c.12.13,1.24.69,1.59.92.71.47.89,1.35,2.01,1.02,2.28-.68-1.94-3.52-2.87-3.76-.85.19-1.36,1.14-.73,1.82Z"/></svg>